<svg xmlns="http://www.w3.org/2000/svg" viewBox="0 0 32 32" id="circuit">
  <circle cx="25" cy="15" r="4" fill="#d82e42"></circle>
  <circle cx="16" cy="5" r="4" fill="#29abe2"></circle>
  <circle cx="7" cy="19" r="4" fill="#fbb03b"></circle>
  <path fill="#252525" d="M30 15a5 5 0 1 0-6 4.9V21a3 3 0 0 1-3 3h-4V9.9a5 5 0 1 0-2 0V30h-4a3 3 0 0 1-3-3v-3.1a5 5 0 1 0-2 0V27a5.006 5.006 0 0 0 5 5h5a1 1 0 0 0 1-1v-5h4a5.006 5.006 0 0 0 5-5v-1.1a5.008 5.008 0 0 0 4-4.9ZM4 19a3 3 0 1 1 3 3 3 3 0 0 1-3-3Zm9-14a3 3 0 1 1 3 3 3 3 0 0 1-3-3Zm12 13a3 3 0 1 1 3-3 3 3 0 0 1-3 3Z"></path>
</svg>
