<svg xmlns="http://www.w3.org/2000/svg" viewBox="0 0 66 66" id="cloud-circuit">
  <path fill="#e2e2e2" d="M11.4 34.56c-5.19 0-9.4-4.2-9.4-9.39s4.21-9.4 9.4-9.4c.61 0 1.2.06 1.77.17.34-4.39 4.02-7.85 8.5-7.85 1.95 0 3.75.65 5.18 1.76C28.07 5.33 32.2 2 37.11 2c5.44 0 9.93 4.09 10.55 9.36.37-.06.76-.1 1.15-.1 2.99 0 5.53 1.89 6.51 4.53 4.85.36 8.68 4.42 8.68 9.37 0 5.19-4.2 9.39-9.39 9.39H11.4z"></path>
  <path fill="#fff" d="M63.75 27.29c.16-.68.25-1.39.25-2.12 0-4.95-3.83-9.01-8.68-9.37a6.931 6.931 0 0 0-6.51-4.53c-.39 0-.78.03-1.15.1C47.04 6.09 42.55 2 37.11 2c-3.33 0-6.31 1.54-8.26 3.94v16.12c0 2.89 2.34 5.23 5.23 5.23h29.67z" opacity=".4"></path>
  <path d="M8.54 17.22c-.42 0-.82-.27-.95-.7a.999.999 0 0 1 .65-1.26c1.31-.42 2.73-.57 4.07-.45.85-4.4 4.77-7.72 9.35-7.72 1.63 0 3.24.42 4.64 1.21a11.51 11.51 0 0 1 1.77-3c.35-.43.98-.49 1.41-.15.43.35.49.98.15 1.41a9.448 9.448 0 0 0-1.82 3.55c-.09.32-.33.58-.65.69a1 1 0 0 1-.93-.16c-1.31-1.02-2.89-1.55-4.57-1.55-3.9 0-7.2 3.04-7.5 6.93a.98.98 0 0 1-.4.72c-.23.17-.52.24-.8.18-1.27-.26-2.78-.18-4.12.24-.1.04-.2.06-.3.06zm46.07 18.34H11.4C5.66 35.56 1 30.9 1 25.17c0-2.61.97-5.1 2.73-7.02A.997.997 0 1 1 5.2 19.5 8.382 8.382 0 0 0 3 25.17c0 4.63 3.77 8.39 8.4 8.39h43.21c4.63 0 8.39-3.76 8.39-8.39 0-1.93-.63-3.74-1.83-5.24-.34-.43-.27-1.06.16-1.41.43-.35 1.06-.27 1.41.16 1.47 1.83 2.27 4.14 2.27 6.49-.01 5.73-4.67 10.39-10.4 10.39zm2.85-18.34c-.1 0-.2-.01-.3-.05-.62-.2-1.26-.32-1.91-.37a.985.985 0 0 1-.86-.65c-.97-2.63-3.72-4.27-6.56-3.8a.998.998 0 0 1-.76-.19.974.974 0 0 1-.39-.68C46.1 6.65 41.99 3 37.11 3c-1.23 0-2.43.23-3.56.68-.51.2-1.09-.04-1.3-.56a.994.994 0 0 1 .56-1.3c1.37-.54 2.81-.82 4.3-.82 5.56 0 10.29 3.92 11.39 9.27a7.997 7.997 0 0 1 7.52 4.6c.59.08 1.18.21 1.75.39a1.005 1.005 0 0 1-.31 1.96z"></path>
  <path d="M11.76 26.17H2.01c-.55 0-1-.45-1-1s.45-1 1-1h9.75c.55 0 1 .45 1 1s-.45 1-1 1zm52.24 0H53.6c-.55 0-1-.45-1-1s.45-1 1-1H64c.55 0 1 .45 1 1s-.45 1-1 1zm-38.23-6.89H19.8c-.55 0-1-.45-1-1V8.3c0-.55.45-1 1-1s1 .45 1 1v8.98h4.96c.55 0 1 .45 1 1s-.44 1-.99 1zm16.4-3.22c-.55 0-1-.45-1-1V3.28c0-.55.45-1 1-1s1 .45 1 1v11.78c0 .55-.44 1-1 1zM18.58 52.78c-.55 0-1-.45-1-1V34.56c0-.55.45-1 1-1s1 .45 1 1v17.22c0 .56-.45 1-1 1zm9.98 3.82c-.55 0-1-.45-1-1v-4.36l-2.47-2.47a.99.99 0 0 1-.29-.71v-4.23c0-.55.45-1 1-1s1 .45 1 1v3.81l2.47 2.47c.19.19.29.44.29.71v4.78c0 .55-.45 1-1 1zm-2.77-16.4c-.55 0-1-.45-1-1v-4.63c0-.55.45-1 1-1s1 .45 1 1v4.63c0 .55-.45 1-1 1zM33 43.84c-.55 0-1-.45-1-1v-8.28c0-.55.45-1 1-1s1 .45 1 1v8.28c0 .55-.44 1-1 1zm4.97 16.52c-.55 0-1-.45-1-1v-5.18c0-.27.11-.52.29-.71l1.96-1.96V34.56c0-.55.45-1 1-1s1 .45 1 1v17.38c0 .27-.11.52-.29.71l-1.96 1.96v4.76c0 .55-.45.99-1 .99zm12.38-2.38c-.55 0-1-.45-1-1v-6.44l-2.62-2.62a.99.99 0 0 1-.29-.71v-2.6c0-.55.45-1 1-1s1 .45 1 1v2.18l2.62 2.62c.19.19.29.44.29.71v6.86c0 .55-.45 1-1 1zm-2.92-17.15c-.55 0-1-.45-1-1v-5.26c0-.55.45-1 1-1s1 .45 1 1v5.26c0 .55-.44 1-1 1zm11.93 6.32h-4.71c-.55 0-1-.45-1-1V34.56c0-.55.45-1 1-1s1 .45 1 1v10.59h3.71c.55 0 1 .45 1 1s-.45 1-1 1z"></path>
  <path fill="#e2e2e2" d="M20.89 54.1c0 1.28-1.03 2.32-2.31 2.32s-2.32-1.04-2.32-2.32c0-1.28 1.04-2.32 2.32-2.32 1.28 0 2.31 1.04 2.31 2.32z"></path>
  <path fill="#ef4a51" d="M30.87 57.92c0 1.28-1.04 2.32-2.32 2.32-1.28 0-2.32-1.04-2.32-2.32 0-1.28 1.04-2.32 2.32-2.32 1.28 0 2.32 1.04 2.32 2.32z"></path>
  <path fill="#ffab03" d="M25.77 18.16a2.725 2.725 0 1 1 5.45.01 2.725 2.725 0 0 1-5.45-.01z"></path>
  <path fill="#7cb5e8" d="M35.32 45.16c0 1.28-1.04 2.32-2.32 2.32s-2.32-1.04-2.32-2.32c0-1.28 1.04-2.32 2.32-2.32s2.32 1.04 2.32 2.32z"></path>
  <circle cx="37.97" cy="61.68" r="2.32" fill="#4e6575"></circle>
  <path fill="#4e6575" d="M44.9 17.75c0 1.5-1.22 2.73-2.73 2.73a2.74 2.74 0 0 1-2.73-2.73c0-1.51 1.23-2.73 2.73-2.73 1.51 0 2.73 1.22 2.73 2.73z"></path>
  <path fill="#ffab03" d="M6.63 46.15c0 1.28-1.04 2.32-2.32 2.32-1.28 0-2.31-1.04-2.31-2.32 0-1.28 1.03-2.32 2.31-2.32s2.32 1.04 2.32 2.32z"></path>
  <path fill="#7cb5e8" d="M14.49 27.9c-1.51 0-2.73-1.22-2.73-2.73s1.22-2.73 2.73-2.73c1.5 0 2.72 1.22 2.72 2.73s-1.22 2.73-2.72 2.73z"></path>
  <path fill="#8aba55" d="M52.66 59.3c0 1.28-1.04 2.32-2.32 2.32-1.28 0-2.31-1.04-2.31-2.32 0-1.28 1.03-2.32 2.31-2.32s2.32 1.04 2.32 2.32z"></path>
  <path fill="#ef4a51" d="M53.6 25.17c0 1.51-1.22 2.73-2.73 2.73s-2.73-1.22-2.73-2.73 1.22-2.73 2.73-2.73 2.73 1.22 2.73 2.73z"></path>
  <path fill="#ffab03" d="M64 46.15c0 1.28-1.04 2.32-2.32 2.32s-2.32-1.04-2.32-2.32c0-1.28 1.04-2.32 2.32-2.32S64 44.87 64 46.15z"></path>
  <path d="M18.58 57.42c-1.83 0-3.32-1.49-3.32-3.32 0-1.83 1.49-3.32 3.32-3.32 1.83 0 3.31 1.49 3.31 3.32 0 1.83-1.48 3.32-3.31 3.32zm0-4.64c-.73 0-1.32.59-1.32 1.32s.59 1.32 1.32 1.32c.72 0 1.31-.59 1.31-1.32s-.59-1.32-1.31-1.32zm9.97 8.46c-1.83 0-3.32-1.49-3.32-3.32s1.49-3.32 3.32-3.32 3.32 1.49 3.32 3.32-1.49 3.32-3.32 3.32zm0-4.64c-.73 0-1.32.59-1.32 1.32s.59 1.32 1.32 1.32 1.32-.59 1.32-1.32-.59-1.32-1.32-1.32zm-.06-34.71a3.726 3.726 0 1 1 3.73-3.73 3.73 3.73 0 0 1-3.73 3.73zm0-5.45c-.95 0-1.72.77-1.72 1.72s.77 1.73 1.72 1.73 1.73-.78 1.73-1.73-.77-1.72-1.73-1.72zM33 48.48c-1.83 0-3.32-1.49-3.32-3.32s1.49-3.32 3.32-3.32c1.83 0 3.32 1.49 3.32 3.32s-1.49 3.32-3.32 3.32zm0-4.64c-.73 0-1.32.59-1.32 1.32s.59 1.32 1.32 1.32 1.32-.59 1.32-1.32-.59-1.32-1.32-1.32zM37.97 65c-1.83 0-3.32-1.49-3.32-3.32 0-1.83 1.49-3.32 3.32-3.32s3.32 1.49 3.32 3.32c0 1.83-1.49 3.32-3.32 3.32zm0-4.64c-.73 0-1.32.59-1.32 1.32S37.24 63 37.97 63s1.32-.59 1.32-1.32-.59-1.32-1.32-1.32zm4.2-38.88a3.73 3.73 0 1 1 0-7.46 3.73 3.73 0 0 1 0 7.46zm0-5.46c-.95 0-1.73.78-1.73 1.73s.78 1.73 1.73 1.73 1.73-.78 1.73-1.73-.77-1.73-1.73-1.73zM4.31 49.47C2.49 49.47 1 47.98 1 46.15c0-1.83 1.48-3.32 3.31-3.32s3.32 1.49 3.32 3.32c0 1.83-1.49 3.32-3.32 3.32zm0-4.64c-.72 0-1.31.59-1.31 1.32s.59 1.32 1.31 1.32c.73 0 1.32-.59 1.32-1.32s-.59-1.32-1.32-1.32zM14.49 28.9a3.73 3.73 0 0 1 0-7.46c2.05 0 3.72 1.67 3.72 3.73s-1.67 3.73-3.72 3.73zm0-5.46c-.95 0-1.73.78-1.73 1.73s.78 1.73 1.73 1.73 1.72-.78 1.72-1.73-.77-1.73-1.72-1.73zm35.85 39.18c-1.83 0-3.31-1.49-3.31-3.32 0-1.83 1.48-3.32 3.31-3.32s3.32 1.49 3.32 3.32c0 1.83-1.49 3.32-3.32 3.32zm0-4.64c-.72 0-1.31.59-1.31 1.32s.59 1.32 1.31 1.32c.73 0 1.32-.59 1.32-1.32s-.59-1.32-1.32-1.32zm.53-29.08a3.73 3.73 0 1 1 0-7.46 3.73 3.73 0 0 1 0 7.46zm0-5.46c-.95 0-1.73.78-1.73 1.73s.78 1.73 1.73 1.73 1.73-.78 1.73-1.73-.77-1.73-1.73-1.73zm10.81 26.03c-1.83 0-3.32-1.49-3.32-3.32 0-1.83 1.49-3.32 3.32-3.32S65 44.32 65 46.15c0 1.83-1.49 3.32-3.32 3.32zm0-4.64c-.73 0-1.32.59-1.32 1.32s.59 1.32 1.32 1.32S63 46.88 63 46.15s-.59-1.32-1.32-1.32z"></path>
  <path d="M11.35 47.15H6.63c-.55 0-1-.45-1-1s.45-1 1-1h3.71V34.56c0-.55.45-1 1-1s1 .45 1 1v11.59c.01.55-.44 1-.99 1z"></path>
</svg>
